<svg width="177" height="36" viewBox="0 0 177 36" fill="none" xmlns="http://www.w3.org/2000/svg">
<path d="M11.955 6.00902V9.84475C11.955 12.1392 10.4043 14.608 6.03301 14.608C1.5785 14.608 1.1646e-06 12.1113 1.1646e-06 9.76106C1.1646e-06 8.71495 0.423247 5.30813 6.06076 5.30813C6.89243 5.31445 7.72256 5.38087 8.54474 5.50689C8.54474 3.97609 7.75376 2.84281 5.55426 2.84281C4.14995 2.80973 2.75226 3.04644 1.43626 3.54021V0.795927C2.81003 0.252443 4.27577 -0.017574 5.752 0.000886381C9.75551 0.000886381 11.955 2.12797 11.955 6.00902ZM8.5725 7.6549C7.90092 7.54933 7.22268 7.49223 6.54299 7.48403C4.25676 7.48403 3.35475 8.164 3.35475 9.32867C3.35475 10.8002 4.229 11.5952 6.00526 11.5952C7.89599 11.5952 8.5725 10.7444 8.5725 9.44025V7.6549Z" transform="translate(43.8789 13.0999)" fill="white"/>
<path d="M7.02175 -1.06415e-07V2.93956C5.79284 2.94106 4.5694 3.104 3.38251 3.42425V14.3735H-4.23491e-07V1.50291C2.22415 0.557522 4.60736 0.0474301 7.02175 -1.06415e-07Z" transform="translate(58.1201 13.1007)" fill="white"/>
<path d="M-2.11746e-07 14.4188V-4.78869e-07H3.38251V14.4188H-2.11746e-07Z" transform="translate(67.0049 13.0554)" fill="white"/>
<path d="M5.73813 7.92251V15.1651C5.73813 16.4134 6.21688 16.7238 7.47275 16.7238C8.02513 16.736 8.5738 16.6302 9.08248 16.4134V19.203C8.37446 19.4926 7.61608 19.6372 6.85175 19.6284C4.05901 19.6284 2.36949 17.8849 2.36949 14.9489V7.92251H-1.27047e-06V5.00039H2.36949V1.33019e-07H5.752V5.00039H9.08248V7.92251H5.73813Z" transform="translate(72.3652 8.05499)" fill="white"/>
<path d="M12.4372 11.0225V19.5273H9.08248V10.74C9.08248 9.49167 8.80147 8.15963 5.64099 8.15963C4.86804 8.14204 4.09997 8.28694 3.38598 8.58504V19.5273H1.05873e-06V3.19246e-07H3.38598V5.65246C4.28787 5.31594 5.24462 5.1527 6.20647 5.17125C10.1267 5.15382 12.4372 7.33669 12.4372 11.0225Z" transform="translate(83.9727 7.94693)" fill="white"/>
<path d="M21.1242 5.87333V14.3782H17.7382V5.66062C17.7382 4.01475 17.204 2.90936 14.5223 2.90936C13.5533 2.91193 12.588 3.02896 11.6462 3.25806C11.6462 3.25806 12.2395 3.93803 12.2395 5.89425V14.3782H8.88473V5.5595C8.88473 4.0008 8.34699 2.95121 5.72425 2.95121C4.93802 2.94988 4.15359 3.02697 3.38251 3.18135V14.3782H-2.96444e-06V1.59127C1.91492 0.579877 4.04003 0.0363206 6.203 0.00467391C7.55146 -0.0461747 8.88311 0.318864 10.0192 1.05078C11.6296 0.381512 13.3521 0.0264909 15.0947 0.00467391C18.8657 0.00467391 21.1242 2.18755 21.1242 5.87333Z" transform="translate(98.9463 13.096)" fill="white"/>
<path d="M11.844 10.6005V13.3518C10.2121 14.219 8.38871 14.658 6.54299 14.6281C3.75025 14.6281 -4.65841e-06 13.4948 -4.65841e-06 7.48315C-4.65841e-06 3.26036 1.69299 5.85285e-07 6.28973 5.85285e-07C10.6887 5.85285e-07 12.5795 3.31616 12.5795 6.85897C12.5898 7.44077 12.5701 8.02273 12.5205 8.60248H3.46924C3.66698 11.3258 5.41548 11.692 7.0495 11.692C8.70907 11.696 10.3481 11.3229 11.844 10.6005ZM3.46924 6.26618H9.13799C8.96799 4.47733 8.09721 2.77916 6.28973 2.77916C4.6245 2.77916 3.66698 3.74157 3.46924 6.26618Z" transform="translate(121.972 13.0728)" fill="white"/>
<path d="M5.73812 7.88415V15.1267C5.73812 16.375 6.21688 16.6854 7.47274 16.6854C8.02403 16.698 8.57165 16.5922 9.079 16.375V19.1647C8.37231 19.4546 7.61499 19.5992 6.85176 19.5901C4.05902 19.5901 2.36949 17.8466 2.36949 14.9105V7.88415H4.23491e-06V4.96203H2.36949V-3.19246e-07H5.752V4.96203H9.079V7.88415H5.73812Z" transform="translate(135.543 8.09338)" fill="white"/>
<path d="M2.11746e-06 14.4188V-4.78869e-07H3.38251V14.4188H2.11746e-06Z" transform="translate(147.131 13.0554)" fill="white"/>
<path d="M7.21949 11.678C8.41925 11.677 9.60722 11.44 10.7165 10.9806V13.8156C9.42464 14.3368 8.04604 14.6066 6.654 14.6106C2.36949 14.6106 0 12.0302 0 7.32274C0 2.61527 2.36949 -1.06415e-07 6.654 -1.06415e-07C8.0462 0.00232706 9.42513 0.272185 10.7165 0.79504V3.63696C9.60724 3.17746 8.41925 2.94054 7.21949 2.93956C4.85 2.93956 3.38251 3.63696 3.38251 7.30531C3.38251 10.9737 4.85 11.678 7.21949 11.678Z" transform="translate(152.473 13.1007)" fill="white"/>
<path d="M11.9585 6.00902V9.84475C11.9585 12.1392 10.4077 14.608 6.03648 14.608C1.57851 14.608 -5.0819e-06 12.1113 -5.0819e-06 9.76106C-5.0819e-06 8.71495 0.423246 5.30813 6.06423 5.30813C6.89475 5.31424 7.72375 5.38066 8.54474 5.50689C8.54474 3.97609 7.75375 2.84281 5.55425 2.84281C4.14997 2.81007 2.75235 3.04677 1.43627 3.54021V0.795927C2.81003 0.252443 4.27577 -0.017574 5.752 0.000886381C9.75898 0.000886381 11.9585 2.12797 11.9585 6.00902ZM8.5725 7.6549C7.90092 7.54933 7.22268 7.49223 6.54299 7.48403C4.25676 7.47357 3.34435 8.17098 3.34435 9.32867C3.34435 10.8002 4.2186 11.5952 5.99485 11.5952C7.88559 11.5952 8.56209 10.7444 8.56209 9.44025L8.5725 7.6549Z" transform="translate(164.914 13.0999)" fill="white"/>
<path d="M1.90808 3.83572C2.96189 3.83572 3.81617 2.97707 3.81617 1.91786C3.81617 0.858656 2.96189 0 1.90808 0C0.854279 0 0 0.858656 0 1.91786C0 2.97707 0.854279 3.83572 1.90808 3.83572Z" transform="translate(66.79 7.86673)" fill="white"/>
<path d="M1.90809 3.83572C2.96189 3.83572 3.81617 2.97707 3.81617 1.91786C3.81617 0.858656 2.96189 0 1.90809 0C0.854282 0 3.81142e-06 0.858656 3.81142e-06 1.91786C3.81142e-06 2.97707 0.854282 3.83572 1.90809 3.83572Z" transform="translate(146.916 7.86673)" fill="white"/>
<path d="M14.5708 2.2981e-05C13.596 0.00139121 12.6615 0.391404 11.9724 1.08449L6.61584 6.4824L11.4728 11.3642L7.97926 14.8931L0 22.8853L1.21423 24.1058L8.49964 31.4285L9.71388 32.649L12.1423 35.0899C12.8452 35.6961 13.7502 36.0126 14.6756 35.9757C15.601 35.9388 16.4782 35.5514 17.1311 34.8912L22.5084 29.5107L17.6931 24.6602L29.1416 13.1321V13.1077L16.9819 0.903161C16.314 0.317884 15.457 -0.00312818 14.5708 2.2981e-05ZM9.17961 16.1135L12.6905 12.5882L19.9759 19.9109L16.4685 23.4398L9.17961 16.1135Z" transform="translate(4.85693)" fill="white"/>
<path d="M10.4979 1.00575V1.02319C9.79173 0.345806 8.84675 -0.0218796 7.87085 0.00100809C6.89495 0.0238958 5.96806 0.435483 5.29406 1.14524L0 6.46643L3.6323 10.1173L11.6116 2.12509L10.4979 1.00575Z" transform="translate(0 11.5475)" fill="#FFA506"/>
<path d="M1.11016 9.1081C1.81724 9.78417 2.7623 10.1507 3.73792 10.1271C4.71354 10.1036 5.64002 9.69195 6.31402 8.98256L11.6254 3.65091L7.97579 5.32077e-08L-7.4111e-07 7.98876L1.11016 9.1081Z" transform="translate(27.23 14.3282)" fill="#FFA506"/>
<path d="M3.65658 2.70139e-05C2.93108 0.00278432 2.22267 0.221585 1.62082 0.628793C1.01897 1.036 0.55068 1.61335 0.275101 2.28792C-0.000477524 2.96249 -0.0709856 3.70401 0.0724845 4.41883C0.215955 5.13365 0.566968 5.7897 1.08119 6.30412C1.5954 6.81854 2.24976 7.16825 2.9616 7.30908C3.67345 7.44991 4.41085 7.37555 5.08067 7.09537C5.75049 6.8152 6.32268 6.34179 6.72497 5.73495C7.12726 5.1281 7.3416 4.41503 7.34092 3.68581C7.34046 3.20044 7.24473 2.71994 7.0592 2.27183C6.87367 1.82372 6.60199 1.41681 6.25973 1.07441C5.91748 0.73202 5.51136 0.460873 5.06467 0.27651C4.61797 0.0921471 4.13947 -0.00180822 3.65658 2.70139e-05ZM3.65658 5.60367C3.2792 5.60367 2.91029 5.49119 2.59651 5.28045C2.28272 5.06971 2.03816 4.77018 1.89374 4.41974C1.74932 4.0693 1.71154 3.68368 1.78516 3.31165C1.85878 2.93962 2.04051 2.59789 2.30736 2.32967C2.57421 2.06146 2.9142 1.8788 3.28433 1.8048C3.65447 1.7308 4.03812 1.76878 4.38677 1.91393C4.73543 2.05909 5.03343 2.30491 5.24309 2.6203C5.45276 2.93569 5.56466 3.30649 5.56466 3.68581C5.56466 4.19446 5.36364 4.68227 5.0058 5.04194C4.64796 5.40161 4.16263 5.60367 3.65658 5.60367Z" transform="translate(31.5146 28.6214)" fill="#FFA506"/>
</svg>
