<svg width="177" height="77" viewBox="0 0 177 77" fill="none" xmlns="http://www.w3.org/2000/svg">
<path d="M15.9248 7.98499V13.0607C15.9248 16.1105 13.859 19.382 8.04204 19.382C2.10119 19.382 0 16.0839 0 12.9499C0 11.5579 0.561793 7.04521 8.06858 7.04521C9.17494 7.05139 10.2794 7.13881 11.373 7.30675C11.373 5.27647 10.3202 3.76041 7.39177 3.76041C5.52139 3.72095 3.66083 4.04148 1.91098 4.70463V1.05634C3.74133 0.333863 5.69456 -0.0244874 7.66161 0.00129961C12.9876 0.0101654 15.9248 2.8295 15.9248 7.98499ZM11.4128 10.166C10.5184 10.0263 9.61515 9.95072 8.70999 9.93991C5.66658 9.93991 4.4678 10.8265 4.4678 12.3869C4.4678 14.3418 5.6312 15.3968 8.00665 15.3968C10.5237 15.3968 11.4261 14.2664 11.4261 12.5376L11.4128 10.166Z" transform="translate(0 56.9641)" fill="white"/>
<path d="M9.35583 -9.46974e-07V3.90984C7.71286 3.90649 6.07667 4.12113 4.48992 4.54818V19.066H-6.74982e-07V1.99482C2.96303 0.737753 6.13878 0.0606292 9.35583 -9.46974e-07Z" transform="translate(18.9551 56.9744)" fill="white"/>
<path d="M8.09978e-07 19.1281V2.70564e-07H4.50319V19.1281H8.09978e-07Z" transform="translate(30.7793 56.9165)" fill="white"/>
<path d="M7.67046 10.5238V20.121C7.67046 21.7789 8.31187 22.1912 9.96186 22.1912C10.6965 22.2065 11.4261 22.066 12.1029 21.7789V25.5026C11.161 25.8874 10.1517 26.0789 9.13465 26.0656C5.41886 26.0656 3.16727 23.7339 3.16727 19.8595V10.5238H1.61996e-06V6.64938H3.154V2.70564e-07H7.67046V6.64938H12.094V10.5238H7.67046Z" transform="translate(37.8921 50.2673)" fill="white"/>
<path d="M16.5574 14.6286V25.9149H12.1073V14.2563C12.1073 12.5984 11.7313 10.8296 7.5289 10.8296C6.49905 10.8053 5.47563 10.9986 4.5253 11.397V25.9149H-1.21497e-06V1.35282e-06H4.50761V7.48277C5.70699 7.03611 6.97951 6.81957 8.25879 6.84443C13.4786 6.84443 16.5574 9.73913 16.5574 14.6286Z" transform="translate(53.3613 50.1299)" fill="white"/>
<path d="M28.1117 7.79003V19.0762H23.6086V7.49302C23.6086 5.30759 22.8964 3.84472 19.331 3.84472C18.0412 3.84282 16.7556 3.99159 15.5002 4.28801C15.5002 4.28801 16.292 5.1746 16.292 7.78559V19.0718H11.8242V7.37776C11.8242 5.30759 11.112 3.91565 7.61737 3.91565C6.57792 3.91574 5.54091 4.01669 4.52088 4.21709V19.0762H-3.23991e-06V2.11146C2.5494 0.768542 5.37894 0.0471292 8.25879 0.00581432C10.0494 -0.0594743 11.8169 0.426286 13.3238 1.39775C15.4682 0.507717 17.7621 0.0353098 20.083 0.00581432C25.1126 0.00581432 28.1117 2.90051 28.1117 7.79003Z" transform="translate(73.2896 56.9685)" fill="white"/>
<path d="M15.7656 14.0701V17.7184C13.5938 18.8699 11.1667 19.4525 8.70999 19.4118C4.9942 19.4118 -1.34996e-06 17.909 -1.34996e-06 9.93418C-1.34996e-06 4.32653 2.25159 6.7641e-07 8.3738 6.7641e-07C14.2262 6.7641e-07 16.7432 4.40189 16.7432 9.10522C16.7432 9.93418 16.7432 10.6833 16.668 11.4369H4.6182C4.87919 15.0498 7.21041 15.5374 9.3868 15.5374C11.5963 15.5364 13.7769 15.0348 15.7656 14.0701ZM4.6182 8.30729H12.1648C11.9392 5.93568 10.7758 3.67932 8.3738 3.67932C6.1576 3.70149 4.88804 4.96931 4.6182 8.31616V8.30729Z" transform="translate(103.932 56.9343)" fill="white"/>
<path d="M7.65718 10.4617V20.059C7.65718 21.7169 8.29861 22.1291 9.9486 22.1291C10.6833 22.1444 11.4129 22.0039 12.0896 21.7169V25.4405C11.1478 25.8253 10.1384 26.0168 9.12138 26.0035C5.40559 26.0035 3.154 23.6718 3.154 19.7974V10.4617H-4.31989e-06V6.58732H3.154V0H7.65718V6.58732H12.0807V10.4617H7.65718Z" transform="translate(121.975 50.3293)" fill="white"/>
<path d="M-2.69993e-06 19.1281V2.70564e-07H4.50318V19.1281H-2.69993e-06Z" transform="translate(137.418 56.9165)" fill="white"/>
<path d="M9.58144 15.4975C11.1848 15.4928 12.7718 15.1736 14.2527 14.5577V18.3168C12.5343 19.0103 10.6996 19.3684 8.84712 19.3719C3.14073 19.3719 -5.39986e-07 15.9497 -5.39986e-07 9.70367C-5.39986e-07 3.45768 3.154 -9.46974e-07 8.84712 -9.46974e-07C10.6996 0.00350057 12.5343 0.361596 14.2527 1.05503V4.81415C12.7723 4.21809 11.1901 3.91695 9.59471 3.92757C6.44513 3.92757 4.48991 4.87178 4.48991 9.72139C4.48991 14.571 6.43186 15.4975 9.58144 15.4975Z" transform="translate(144.553 56.9744)" fill="white"/>
<path d="M15.916 7.98499V13.0607C15.916 16.1105 13.8502 19.382 8.03319 19.382C2.10119 19.382 -2.69993e-06 16.0706 -2.69993e-06 12.9499C-2.69993e-06 11.5579 0.56179 7.04521 8.073 7.04521C9.17789 7.05139 10.2808 7.1388 11.373 7.30675C11.373 5.27647 10.3246 3.76041 7.39177 3.76041C5.52139 3.72095 3.66083 4.04148 1.91098 4.70463V1.05634C3.74133 0.333863 5.69456 -0.0244874 7.66161 0.00129961C12.9876 0.0101654 15.916 2.8295 15.916 7.98499ZM11.4349 10.166C10.5405 10.0263 9.63727 9.95072 8.73212 9.93991C5.68871 9.93991 4.48991 10.8265 4.48991 12.3869C4.48991 14.3418 5.65331 15.3968 8.02876 15.3968C10.5458 15.3968 11.4482 14.2664 11.4482 12.5376L11.4349 10.166Z" transform="translate(161.084 56.9641)" fill="white"/>
<path d="M2.53912 5.08899C3.94144 5.08899 5.07825 3.94978 5.07825 2.5445C5.07825 1.13921 3.94144 0 2.53912 0C1.1368 0 0 1.13921 0 2.5445C0 3.94978 1.1368 5.08899 2.53912 5.08899Z" transform="translate(30.4917 50.0281)" fill="white"/>
<path d="M2.53912 5.08899C3.94144 5.08899 5.07825 3.94978 5.07825 2.5445C5.07825 1.13921 3.94144 0 2.53912 0C1.1368 0 0 1.13921 0 2.5445C0 3.94978 1.1368 5.08899 2.53912 5.08899Z" transform="translate(137.13 50.0281)" fill="white"/>
<path d="M19.4283 6.18291e-06C18.1291 0.00257635 16.8838 0.520565 15.9646 1.44071L8.82058 8.59987L15.2746 15.0719L10.6165 19.762L5.39986e-07 30.3699L1.61903 31.9924L11.3155 41.7094L12.9345 43.3318L16.1637 46.5723C17.1008 47.3715 18.3037 47.7879 19.5332 47.7386C20.7627 47.6893 21.9287 47.178 22.799 46.3063L29.9475 39.1471L23.551 32.7238L38.8168 17.4214L38.7902 17.3948L22.6088 1.17916C21.724 0.41663 20.5953 -0.00185522 19.4283 6.18291e-06ZM12.2311 21.3844L16.9024 16.7033L26.6033 26.4247L21.932 31.1058L12.2311 21.3844Z" transform="translate(69.2153 0.348145)" fill="white"/>
<path d="M13.9873 1.34367C13.0465 0.452365 11.7922 -0.030098 10.4979 0.00145646C9.20356 0.0330109 7.97417 0.576025 7.0777 1.51213L2.69993e-07 8.6048L4.83495 13.45L15.4515 2.84643L13.9873 1.34367Z" transform="translate(62.7524 15.668)" fill="#FFA506"/>
<path d="M1.47747 12.0886C2.41722 12.9821 3.67196 13.466 4.96699 13.4344C6.26201 13.4029 7.49179 12.8583 8.38707 11.9201L15.4648 4.82745L10.6166 -2.70564e-07L3.23991e-06 10.608L1.47747 12.0886Z" transform="translate(99.0083 19.3608)" fill="#FFA506"/>
<path d="M4.86592 -8.11692e-07C3.90354 -8.11692e-07 2.96276 0.285985 2.16256 0.82179C1.36236 1.3576 0.738691 2.11915 0.370402 3.01017C0.00211172 3.90118 -0.0942556 4.88162 0.0934969 5.82752C0.281249 6.77341 0.744685 7.64227 1.4252 8.32422C2.10571 9.00617 2.97273 9.47058 3.91663 9.65873C4.86052 9.84688 5.8389 9.75031 6.72803 9.38125C7.61716 9.01218 8.37711 8.38718 8.91179 7.58529C9.44646 6.7834 9.73184 5.84064 9.73184 4.87621C9.73184 4.23586 9.60598 3.60178 9.36145 3.01017C9.11691 2.41856 8.75849 1.88101 8.30664 1.42821C7.8548 0.97541 7.31839 0.616232 6.72803 0.371179C6.13767 0.126127 5.50492 -8.11692e-07 4.86592 -8.11692e-07ZM4.86592 7.43844C4.36373 7.43844 3.87282 7.28921 3.45526 7.00962C3.0377 6.73002 2.71226 6.33263 2.52008 5.86768C2.3279 5.40273 2.27761 4.89112 2.37558 4.39754C2.47356 3.90395 2.71539 3.45057 3.07049 3.09471C3.42559 2.73886 3.87802 2.49652 4.37056 2.39834C4.8631 2.30016 5.37364 2.35055 5.8376 2.54314C6.30156 2.73572 6.69812 3.06186 6.97713 3.4803C7.25613 3.89874 7.40504 4.39069 7.40504 4.89394C7.40504 5.56879 7.13753 6.21599 6.66136 6.69317C6.18518 7.17036 5.53934 7.43844 4.86592 7.43844Z" transform="translate(104.71 38.325)" fill="#FFA506"/>
</svg>
