<svg width="101" height="101" viewBox="0 0 101 101" fill="none" xmlns="http://www.w3.org/2000/svg">
<g filter="url(#filter0_d)">
<path d="M40 0C17.92 0 0 17.92 0 40C0 62.08 17.92 80 40 80C62.08 80 80 62.08 80 40C80 17.92 62.08 0 40 0Z" transform="translate(9.66309 7.56836)" fill="white"/>
</g>
<path d="M0.80001 5.76C0.80001 5.76 1.43999 7.92 4.47999 8.64L9.76 16.16L12.48 15.52C12.48 15.52 10.24 11.52 10.88 10.96C10.88 10.96 17.12 10.96 19.2 9.36C19.2 9.36 22.8 7.12 22.16 3.28L12.48 6.10352e-07L3.84 2.08L9.76562e-06 4.32L0.80001 5.76Z" transform="translate(47.5029 54.1284)" fill="white" stroke="#4A9CD3" stroke-miterlimit="10"/>
<path d="M16.9501 1.77284C16.9501 1.77284 18.9501 1.29284 20.7901 1.37284C20.7901 1.37284 23.3501 -0.867164 27.3501 0.572836C28.1501 0.0928363 29.9901 -0.467163 33.7501 0.652837C39.2701 2.33284 38.2301 0.812837 42.1501 4.81284C42.1501 4.81284 43.8301 6.25284 44.9501 6.57284C44.9501 6.57284 47.2701 8.33284 47.0301 10.2528C47.0301 10.2528 49.5101 10.9728 49.7501 13.3728C49.7501 13.3728 52.9501 15.0528 53.0301 21.2128C53.0301 21.2128 53.9901 23.7728 51.9901 28.2528C51.9901 28.2528 49.9901 31.1328 47.4301 30.4928C44.8701 29.8528 42.55 30.7328 40.87 30.2528C40.87 30.2528 37.2701 31.4528 35.4301 30.1728C35.4301 30.1728 30.3901 31.7728 27.8301 32.0128C27.8301 32.0128 23.11 35.0528 20.07 34.4128C17.03 33.7728 12.39 34.1728 11.27 28.8128C11.27 28.8128 7.59006 29.4528 5.03006 28.0928C2.55006 26.7328 2.55005 24.4928 2.55005 24.4928C2.55005 24.4928 0.870059 23.6928 0.630059 22.0928C0.630059 22.0928 0.390059 21.1328 0.630059 20.1728C0.630059 20.1728 -0.249951 19.0528 0.0700494 17.4528C0.0700494 17.4528 0.150069 14.4128 2.79007 11.2928C2.79007 11.2928 4.23005 8.09284 6.07005 7.37284C6.07005 7.37284 8.23005 4.41284 10.5501 3.45284C10.6301 3.37284 13.1101 2.17284 16.9501 1.77284Z" transform="translate(22.3135 26.9155)" fill="white" stroke="#4A9CD3" stroke-miterlimit="10"/>
<path d="M22.08 0.925656C22.08 0.925656 20.88 -1.95434 13.12 2.44566C13.12 2.44566 12.08 2.76566 11.36 3.96566C11.36 3.96566 8.31999 2.04566 4.31999 5.24566C4.31999 5.24566 0.399995 6.92566 -4.88281e-06 11.5657" transform="translate(33.6631 44.0828)" stroke="#4A9CD3" stroke-miterlimit="10"/>
<path d="M0.4225 9.76C0.4225 9.76 -0.9375 6.96 1.2225 4.8C3.3825 2.64 0.58251 6.10352e-07 0.58251 6.10352e-07" transform="translate(45.1602 29.3284)" stroke="#4A9CD3" stroke-miterlimit="10"/>
<path d="M16.64 6.82933C16.64 6.82933 15.92 4.18933 16.8 2.10933C17.2 1.14933 16.56 0.109332 15.52 0.0293319C13.04 -0.130668 9.36 0.269334 7.36 3.62933C7.36 3.62933 3.84 3.22933 3.76 9.54933C3.76 9.54933 0.40001 8.34933 9.76563e-06 12.4293" transform="translate(23.9023 32.259)" stroke="#4A9CD3" stroke-miterlimit="10"/>
<path d="M9.76562e-06 0.924445C9.76562e-06 0.924445 2.47999 -1.15556 4.47999 0.924445C4.47999 0.924445 5.43999 2.28444 5.67999 4.12444" transform="translate(54.7031 36.644)" stroke="#4A9CD3" stroke-miterlimit="10"/>
<path d="M0.641412 8.1752C0.641412 8.1752 -0.478588 5.4552 0.241412 4.0952C0.241412 4.0952 0.641407 2.2552 2.96141 0.735197C3.84141 0.175197 8.1614 -0.864803 9.2814 1.3752" transform="translate(49.6611 30.8333)" stroke="#4A9CD3" stroke-miterlimit="10"/>
<path d="M15.84 0C15.84 0 14.88 1.92 12.48 2C12.48 2 11.04 2.4 10.16 2C10.16 2 9.92 3.76 7.2 4.08C7.2 4.08 5.91999 4.4 4.63999 3.6C4.63999 3.6 3.68 6.24 0 5.6" transform="translate(39.3428 48.3684)" stroke="#4A9CD3" stroke-miterlimit="10"/>
<path d="M-4.88281e-06 -6.10352e-07C-4.88281e-06 -6.10352e-07 1.84 5.68 2.56 5.92Z" transform="translate(37.2627 42.2085)" fill="white"/>
<path d="M-4.88281e-06 -6.10352e-07C-4.88281e-06 -6.10352e-07 1.84 5.68 2.56 5.92" transform="translate(37.2627 42.2085)" stroke="#4A9CD3" stroke-miterlimit="10"/>
<path d="M-9.76563e-06 2.8C-9.76563e-06 2.8 3.28 1.68 2.88 1.2207e-06Z" transform="translate(42.7842 44.6885)" fill="white"/>
<path d="M-9.76563e-06 2.8C-9.76563e-06 2.8 3.28 1.68 2.88 1.2207e-06" transform="translate(42.7842 44.6885)" stroke="#4A9CD3" stroke-miterlimit="10"/>
<path d="M-9.76562e-06 -1.2207e-06C-9.76562e-06 -1.2207e-06 3.04 2.32 5.36 3.44Z" transform="translate(31.583 46.4482)" fill="white"/>
<path d="M-9.76562e-06 -1.2207e-06C-9.76562e-06 -1.2207e-06 3.04 2.32 5.36 3.44" transform="translate(31.583 46.4482)" stroke="#4A9CD3" stroke-miterlimit="10"/>
<path d="M0.062759 1.2207e-06C-0.097241 0.480001 0.0627785 1.12 0.382779 1.52C0.702779 1.92 1.18276 2.24 1.74276 2.4C1.90276 2.48 2.06276 2.48 2.14276 2.64C2.22276 2.72 2.22277 2.88 2.22277 2.96C2.22277 3.84 2.70277 4.72 3.42277 5.2" transform="translate(27.1201 46.6885)" stroke="#4A9CD3" stroke-miterlimit="10"/>
<path d="M5.44336 5.2C5.44336 5.2 -0.156636 4.24 0.00336441 2.44141e-06Z" transform="translate(52.9404 59.8083)" fill="white"/>
<path d="M5.44336 5.2C5.44336 5.2 -0.156636 4.24 0.00336441 2.44141e-06" transform="translate(52.9404 59.8083)" stroke="#4A9CD3" stroke-miterlimit="10"/>
<path d="M22.24 9.36L19.84 8.64C19.68 8.08 19.44 7.6 19.2 7.12L20.4 4.88C20.48 4.72 20.48 4.48 20.32 4.4L18.16 2.24C18 2.08 17.84 2.08 17.68 2.16L15.44 3.36C14.96 3.12 14.4 2.88 13.92 2.72L13.2 0.319999C13.12 0.159999 12.96 6.10352e-07 12.8 6.10352e-07H9.75999C9.51999 6.10352e-07 9.43999 0.159999 9.35999 0.319999L8.64 2.72C8.08 2.88 7.6 3.12 7.12 3.36L4.88001 2.16C4.72001 2.08 4.48001 2.08 4.40001 2.24L2.24 4.4C2.08 4.56 2.07999 4.72 2.15999 4.88L3.35999 7.12C3.11999 7.6 2.88 8.16 2.72 8.64L0.32 9.36C0.16 9.44 4.88281e-06 9.6 4.88281e-06 9.76V12.8C4.88281e-06 12.96 0.16 13.12 0.32 13.2L2.72 13.92C2.88 14.48 3.11999 14.96 3.35999 15.44L2.15999 17.68C2.07999 17.84 2.08 18.08 2.24 18.16L4.40001 20.32C4.56001 20.48 4.72001 20.48 4.88001 20.4L7.12 19.2C7.6 19.44 8.16 19.68 8.64 19.84L9.35999 22.24C9.43999 22.4 9.59999 22.56 9.75999 22.56H12.8C12.96 22.56 13.12 22.4 13.2 22.24L13.92 19.84C14.48 19.68 14.96 19.44 15.44 19.2L17.68 20.4C17.84 20.48 18.08 20.48 18.16 20.32L20.32 18.16C20.48 18 20.48 17.84 20.4 17.68L19.2 15.44C19.44 14.96 19.68 14.4 19.84 13.92L22.24 13.2C22.4 13.12 22.56 12.96 22.56 12.8V9.76C22.56 9.6 22.4 9.44 22.24 9.36ZM14.64 11.28C14.64 13.12 13.2 14.56 11.36 14.56C9.51999 14.56 8.08001 13.12 8.08001 11.28C8.08001 9.44 9.51999 8 11.36 8C13.2 8 14.64 9.44 14.64 11.28Z" transform="translate(49.8232 38.5283)" fill="white" stroke="#4A9CD3" stroke-miterlimit="10"/>
<defs>
<filter id="filter0_d" x="0.663086" y="0.568359" width="100" height="100" filterUnits="userSpaceOnUse" color-interpolation-filters="sRGB">
<feFlood flood-opacity="0" result="BackgroundImageFix"/>
<feColorMatrix in="SourceAlpha" type="matrix" values="0 0 0 0 0 0 0 0 0 0 0 0 0 0 0 0 0 0 255 0"/>
<feOffset dx="1" dy="3"/>
<feGaussianBlur stdDeviation="5"/>
<feColorMatrix type="matrix" values="0 0 0 0 0 0 0 0 0 0 0 0 0 0 0 0 0 0 0.06 0"/>
<feBlend mode="normal" in2="BackgroundImageFix" result="effect1_dropShadow"/>
<feBlend mode="normal" in="SourceGraphic" in2="effect1_dropShadow" result="shape"/>
</filter>
</defs>
</svg>
