<svg width="13" height="14" viewBox="0 0 13 14" fill="none" xmlns="http://www.w3.org/2000/svg">
<path fill-rule="evenodd" clip-rule="evenodd" d="M8.21143 0C7.93555 0 7.71143 0.223846 7.71143 0.5C7.71143 0.776154 7.93555 1 8.21143 1H10.3555L5.64746 5.67929C5.45166 5.87396 5.45068 6.19052 5.64551 6.38638C5.83984 6.58224 6.15674 6.58319 6.35254 6.38852L11.0674 1.70193V3.85593C11.0674 4.13208 11.2915 4.35593 11.5674 4.35593C11.8438 4.35593 12.0674 4.13208 12.0674 3.85593V0.5C12.0674 0.223846 11.8438 0 11.5674 0H8.21143ZM1 3.5C1 2.67157 1.67139 2 2.5 2H4.85596C5.13184 2 5.35596 1.77615 5.35596 1.5C5.35596 1.22385 5.13184 1 4.85596 1H2.5C1.11914 1 0 2.11929 0 3.5V9.56781C0 10.9485 1.11914 12.0678 2.5 12.0678H8.56787C9.94824 12.0678 11.0679 10.9485 11.0679 9.56781V7.21188C11.0679 6.93573 10.8438 6.71188 10.5679 6.71188C10.2915 6.71188 10.0679 6.93573 10.0679 7.21188V9.56781C10.0679 10.3962 9.396 11.0678 8.56787 11.0678H2.5C1.67139 11.0678 1 10.3962 1 9.56781V3.5Z" transform="translate(0 0.966095)" fill="rgba(235, 245, 255, .5)"/>
</svg>
